# xmcd
# Copyright (C) 1995-1998 Ti Kan
#
# Track frame offsets:
#       150
#       25527
#       47397
#       67142
#       94101
#       119375
#       143316
#       162706
#       185003
#       204274
#       220132
#
# Disc length: 3327 seconds
#
# Revision: 0
# Processed by: cddbd v1.5.2PL0 Copyright (c) Steve Scherf et al.
# Submitted via: CD-Import v1.0
#
DISCID=950cfd0b
DTITLE=Bell X1 - Bloodless Coup
DYEAR=2011
DGENRE=
TTITLE0=Hey Anna Lena
TTITLE1=Velcro
TTITLE2=Nightwatchmen
TTITLE3=Sugar High
TTITLE4=Built To Last
TTITLE5=4 Minute Mile
TTITLE6=Safer Than Love
TTITLE7=The Trailing Skirts Of God
TTITLE8=Haloumi
TTITLE9=74 Swans
TTITLE10=Amsterdam Says
EXTD=
EXTT0=
EXTT1=
EXTT2=
EXTT3=
EXTT4=
EXTT5=
EXTT6=
EXTT7=
EXTT8=
EXTT9=
EXTT10=
PLAYORDER=
